<svg version="1.1" xmlns="http://www.w3.org/2000/svg" viewBox="0 0 605.3034398484956 551.6087790946445" width="605.3034398484956" height="551.6087790946445">
  <!-- svg-source:excalidraw -->
  
  <defs>
    <style class="style-fonts">
      @font-face {
        font-family: "Virgil";
        src: url("https://excalidraw.com/Virgil.woff2");
      }
      @font-face {
        font-family: "Cascadia";
        src: url("https://excalidraw.com/Cascadia.woff2");
      }
      @font-face {
        font-family: "Assistant";
        src: url("https://excalidraw.com/Assistant-Regular.woff2");
      }
    </style>
    
  </defs>
  <rect x="0" y="0" width="605.3034398484956" height="551.6087790946445" fill="#ffffff"></rect><g stroke-linecap="round" transform="translate(10 10) rotate(0 72.97110319333956 66.45580619685245)"><path d="M0 0 C44.42 0, 88.84 0, 145.94 0 M0 0 C30.06 0, 60.12 0, 145.94 0 M145.94 0 C145.94 46.34, 145.94 92.68, 145.94 132.91 M145.94 0 C145.94 28.64, 145.94 57.27, 145.94 132.91 M145.94 132.91 C91.36 132.91, 36.79 132.91, 0 132.91 M145.94 132.91 C106.98 132.91, 68.01 132.91, 0 132.91 M0 132.91 C0 84.76, 0 36.6, 0 0 M0 132.91 C0 91.85, 0 50.78, 0 0" stroke="#1e1e1e" stroke-width="1" fill="none"></path></g><g stroke-linecap="round" transform="translate(156.45374448727216 10) rotate(0 72.97110319333956 66.45580619685245)"><path d="M0 0 C43.07 0, 86.14 0, 145.94 0 M0 0 C43.9 0, 87.81 0, 145.94 0 M145.94 0 C145.94 45.04, 145.94 90.08, 145.94 132.91 M145.94 0 C145.94 38.77, 145.94 77.55, 145.94 132.91 M145.94 132.91 C97.12 132.91, 48.3 132.91, 0 132.91 M145.94 132.91 C99.94 132.91, 53.93 132.91, 0 132.91 M0 132.91 C0 105.61, 0 78.3, 0 0 M0 132.91 C0 82.38, 0 31.85, 0 0" stroke="#1e1e1e" stroke-width="1" fill="none"></path></g><g stroke-linecap="round" transform="translate(302.9074889745443 10) rotate(0 72.97110319333956 66.45580619685245)"><path d="M0 0 C57.35 0, 114.7 0, 145.94 0 M0 0 C46.9 0, 93.79 0, 145.94 0 M145.94 0 C145.94 52.1, 145.94 104.2, 145.94 132.91 M145.94 0 C145.94 35.78, 145.94 71.56, 145.94 132.91 M145.94 132.91 C111.08 132.91, 76.23 132.91, 0 132.91 M145.94 132.91 C100.43 132.91, 54.91 132.91, 0 132.91 M0 132.91 C0 99.25, 0 65.59, 0 0 M0 132.91 C0 86.83, 0 40.76, 0 0" stroke="#1e1e1e" stroke-width="1" fill="none"></path></g><g stroke-linecap="round" transform="translate(449.3612334618165 10) rotate(0 72.97110319333956 66.45580619685245)"><path d="M0 0 C33.46 0, 66.92 0, 145.94 0 M0 0 C30.02 0, 60.05 0, 145.94 0 M145.94 0 C145.94 43.69, 145.94 87.38, 145.94 132.91 M145.94 0 C145.94 42.22, 145.94 84.45, 145.94 132.91 M145.94 132.91 C99.33 132.91, 52.72 132.91, 0 132.91 M145.94 132.91 C113.64 132.91, 81.35 132.91, 0 132.91 M0 132.91 C0 90.9, 0 48.89, 0 0 M0 132.91 C0 87.07, 0 41.23, 0 0" stroke="#1e1e1e" stroke-width="1" fill="none"></path></g><g stroke-linecap="round" transform="translate(10 142.89905556697988) rotate(0 72.97110319333956 66.45580619685245)"><path d="M0 0 C51.44 0, 102.89 0, 145.94 0 M0 0 C52.01 0, 104.02 0, 145.94 0 M145.94 0 C145.94 41.22, 145.94 82.43, 145.94 132.91 M145.94 0 C145.94 50.66, 145.94 101.31, 145.94 132.91 M145.94 132.91 C103.65 132.91, 61.36 132.91, 0 132.91 M145.94 132.91 C112.06 132.91, 78.19 132.91, 0 132.91 M0 132.91 C0 95.88, 0 58.85, 0 0 M0 132.91 C0 105.12, 0 77.32, 0 0" stroke="#1e1e1e" stroke-width="1" fill="none"></path></g><g stroke-linecap="round" transform="translate(156.45374448727216 142.89905556697988) rotate(0 72.97110319333956 66.45580619685245)"><path d="M0 0 C33.24 0, 66.47 0, 145.94 0 M0 0 C47 0, 94 0, 145.94 0 M145.94 0 C145.94 43.95, 145.94 87.9, 145.94 132.91 M145.94 0 C145.94 46.15, 145.94 92.3, 145.94 132.91 M145.94 132.91 C93.41 132.91, 40.87 132.91, 0 132.91 M145.94 132.91 C112.87 132.91, 79.8 132.91, 0 132.91 M0 132.91 C0 91.81, 0 50.7, 0 0 M0 132.91 C0 83.24, 0 33.56, 0 0" stroke="#1e1e1e" stroke-width="1" fill="none"></path></g><g stroke-linecap="round" transform="translate(302.9074889745443 142.89905556697988) rotate(0 72.97110319333956 66.45580619685245)"><path d="M0 0 C31.89 0, 63.77 0, 145.94 0 M0 0 C42.4 0, 84.79 0, 145.94 0 M145.94 0 C145.94 33.26, 145.94 66.51, 145.94 132.91 M145.94 0 C145.94 35.3, 145.94 70.6, 145.94 132.91 M145.94 132.91 C112.11 132.91, 78.28 132.91, 0 132.91 M145.94 132.91 C106.42 132.91, 66.89 132.91, 0 132.91 M0 132.91 C0 85.85, 0 38.78, 0 0 M0 132.91 C0 80.69, 0 28.46, 0 0" stroke="#1e1e1e" stroke-width="1" fill="none"></path></g><g stroke-linecap="round" transform="translate(449.3612334618165 142.89905556697988) rotate(0 72.97110319333956 66.45580619685245)"><path d="M0 0 C48.96 0, 97.91 0, 145.94 0 M0 0 C57.42 0, 114.85 0, 145.94 0 M145.94 0 C145.94 40.29, 145.94 80.58, 145.94 132.91 M145.94 0 C145.94 38.49, 145.94 76.98, 145.94 132.91 M145.94 132.91 C95.18 132.91, 44.42 132.91, 0 132.91 M145.94 132.91 C115.97 132.91, 86 132.91, 0 132.91 M0 132.91 C0 86.64, 0 40.37, 0 0 M0 132.91 C0 85.06, 0 37.2, 0 0" stroke="#1e1e1e" stroke-width="1" fill="none"></path></g><g stroke-linecap="round" transform="translate(10 275.79811113395976) rotate(0 72.97110319333956 66.45580619685245)"><path d="M0 0 C40.69 0, 81.38 0, 145.94 0 M0 0 C29.5 0, 59 0, 145.94 0 M145.94 0 C145.94 35.69, 145.94 71.37, 145.94 132.91 M145.94 0 C145.94 33.09, 145.94 66.17, 145.94 132.91 M145.94 132.91 C115.76 132.91, 85.57 132.91, 0 132.91 M145.94 132.91 C111.14 132.91, 76.34 132.91, 0 132.91 M0 132.91 C0 84.89, 0 36.87, 0 0 M0 132.91 C0 92.43, 0 51.94, 0 0" stroke="#1e1e1e" stroke-width="1" fill="none"></path></g><g stroke-linecap="round" transform="translate(156.45374448727216 275.79811113395976) rotate(0 72.97110319333956 66.45580619685245)"><path d="M0 0 C41.49 0, 82.98 0, 145.94 0 M0 0 C37.95 0, 75.89 0, 145.94 0 M145.94 0 C145.94 42.33, 145.94 84.66, 145.94 132.91 M145.94 0 C145.94 30.65, 145.94 61.3, 145.94 132.91 M145.94 132.91 C113.02 132.91, 80.1 132.91, 0 132.91 M145.94 132.91 C92.26 132.91, 38.57 132.91, 0 132.91 M0 132.91 C0 103.92, 0 74.94, 0 0 M0 132.91 C0 91, 0 49.09, 0 0" stroke="#1e1e1e" stroke-width="1" fill="none"></path></g><g stroke-linecap="round" transform="translate(302.9074889745443 275.79811113395976) rotate(0 72.97110319333956 66.45580619685245)"><path d="M0 0 C37.23 0, 74.46 0, 145.94 0 M0 0 C42.77 0, 85.54 0, 145.94 0 M145.94 0 C145.94 47.9, 145.94 95.81, 145.94 132.91 M145.94 0 C145.94 30.39, 145.94 60.78, 145.94 132.91 M145.94 132.91 C97.84 132.91, 49.73 132.91, 0 132.91 M145.94 132.91 C110.06 132.91, 74.17 132.91, 0 132.91 M0 132.91 C0 95.74, 0 58.57, 0 0 M0 132.91 C0 81.25, 0 29.6, 0 0" stroke="#1e1e1e" stroke-width="1" fill="none"></path></g><g stroke-linecap="round" transform="translate(449.3612334618165 275.79811113395976) rotate(0 72.97110319333956 66.45580619685245)"><path d="M0 0 C48.87 0, 97.74 0, 145.94 0 M0 0 C41.34 0, 82.67 0, 145.94 0 M145.94 0 C145.94 38.65, 145.94 77.31, 145.94 132.91 M145.94 0 C145.94 26.82, 145.94 53.64, 145.94 132.91 M145.94 132.91 C111.79 132.91, 77.65 132.91, 0 132.91 M145.94 132.91 C103.25 132.91, 60.56 132.91, 0 132.91 M0 132.91 C0 100.34, 0 67.77, 0 0 M0 132.91 C0 81.05, 0 29.18, 0 0" stroke="#1e1e1e" stroke-width="1" fill="none"></path></g><g stroke-linecap="round" transform="translate(10 408.69716670093965) rotate(0 72.97110319333956 66.45580619685245)"><path d="M0 0 C53.02 0, 106.05 0, 145.94 0 M0 0 C37.78 0, 75.56 0, 145.94 0 M145.94 0 C145.94 31.69, 145.94 63.39, 145.94 132.91 M145.94 0 C145.94 48.46, 145.94 96.92, 145.94 132.91 M145.94 132.91 C98.02 132.91, 50.09 132.91, 0 132.91 M145.94 132.91 C97.53 132.91, 49.11 132.91, 0 132.91 M0 132.91 C0 88.93, 0 44.95, 0 0 M0 132.91 C0 85.86, 0 38.8, 0 0" stroke="#1e1e1e" stroke-width="1" fill="none"></path></g><g stroke-linecap="round" transform="translate(156.45374448727125 408.69716670093965) rotate(0 72.97110319333956 66.45580619685245)"><path d="M0 0 C36.38 0, 72.77 0, 145.94 0 M0 0 C52.37 0, 104.74 0, 145.94 0 M145.94 0 C145.94 40.17, 145.94 80.34, 145.94 132.91 M145.94 0 C145.94 30.99, 145.94 61.99, 145.94 132.91 M145.94 132.91 C94.82 132.91, 43.7 132.91, 0 132.91 M145.94 132.91 C97.98 132.91, 50.02 132.91, 0 132.91 M0 132.91 C0 85.43, 0 37.96, 0 0 M0 132.91 C0 87.27, 0 41.63, 0 0" stroke="#1e1e1e" stroke-width="1" fill="none"></path></g><g stroke-linecap="round" transform="translate(302.9074889745443 408.69716670093965) rotate(0 72.97110319333956 66.45580619685245)"><path d="M0 0 C35.87 0, 71.73 0, 145.94 0 M0 0 C50.62 0, 101.24 0, 145.94 0 M145.94 0 C145.94 30.35, 145.94 60.7, 145.94 132.91 M145.94 0 C145.94 33.3, 145.94 66.61, 145.94 132.91 M145.94 132.91 C106.35 132.91, 66.75 132.91, 0 132.91 M145.94 132.91 C106.91 132.91, 67.88 132.91, 0 132.91 M0 132.91 C0 93.72, 0 54.52, 0 0 M0 132.91 C0 98.43, 0 63.95, 0 0" stroke="#1e1e1e" stroke-width="1" fill="none"></path></g><g stroke-linecap="round" transform="translate(449.3612334618156 408.69716670093965) rotate(0 72.97110319333956 66.45580619685245)"><path d="M0 0 C39.28 0, 78.55 0, 145.94 0 M0 0 C55.71 0, 111.43 0, 145.94 0 M145.94 0 C145.94 48.7, 145.94 97.39, 145.94 132.91 M145.94 0 C145.94 31.6, 145.94 63.21, 145.94 132.91 M145.94 132.91 C93.62 132.91, 41.31 132.91, 0 132.91 M145.94 132.91 C88.01 132.91, 30.08 132.91, 0 132.91 M0 132.91 C0 91.33, 0 49.76, 0 0 M0 132.91 C0 100.42, 0 67.94, 0 0" stroke="#1e1e1e" stroke-width="1" fill="none"></path></g></svg>